<svg xmlns="http://www.w3.org/2000/svg" viewBox="0 0 512 512" style="enable-background:new 0 0 512 512" xml:space="preserve"><path style="fill:#eda751" d="M382 469h-81a24 24 0 1 1 0-48h81a24 24 0 0 1 0 48z"/><path style="opacity:.2;fill:#a35f00;enable-background:new" d="M382 469h-81a24 24 0 1 1 0-48h81a24 24 0 0 1 0 48z"/><path style="fill:#eda751" d="M98 462c-11 0-20-4-28-8-22-14-27-36-32-56s-8-33-23-41a15 15 0 1 1 15-26c26 15 32 40 37 60 4 19 8 30 19 37 7 4 16 7 31-3 13-9 25-24 35-37l4-4a15 15 0 0 1 23 19l-4 4c-11 14-25 31-41 42-13 9-25 13-36 13z"/><path style="opacity:.2;fill:#c18f00;enable-background:new" d="M177 382c-7-6-16-5-21 2l-4 4c-10 13-22 28-35 37l-7 4 19 23 5-3c16-11 30-28 41-42l4-4c5-7 4-16-2-21z"/><path style="fill:#fcd79d" d="M30 331a15 15 0 1 0-15 26l9 7c6-5 14-12 18-24l-12-9z"/><ellipse style="fill:#fcd690" cx="221.6" cy="366.8" rx="110.1" ry="102.3"/><path style="opacity:.1;fill:#c18f00;enable-background:new" d="M205 468c-50-33-34-101-26-130v-66c-40 16-68 52-68 95 0 51 41 94 94 101z"/><path style="fill:#eda751" d="M155 189c21-18 35-48 5-93-31-45-76-56-112-52-8 1-16 7-18 15-11 35-7 82 32 120 39 37 71 28 93 10z"/><path style="fill:#ff91ab" d="M28 65c-8 33-3 78 34 114 33 32 62 30 83 17C131 97 67 71 28 65z"/><path style="fill:#eda751" d="M289 189c-22-18-36-48-6-93 31-45 76-56 112-52 9 1 16 7 18 15 11 35 8 82-32 120-39 37-71 28-92 10z"/><path style="fill:#ff91ab" d="M415 65c8 33 4 78-34 114-33 32-62 30-83 17 14-99 78-125 117-131z"/><path style="fill:#fcd690" d="M409 217c0 85-84 123-187 123S34 302 34 217 118 62 222 62s187 69 187 155z"/><path style="opacity:.1;fill:#c18f00;enable-background:new" d="M121 85c-52 28-87 76-87 132 0 73 62 111 145 121C60 266 76 170 121 85z"/><ellipse style="fill:#ff91ab" cx="142.7" cy="221.5" rx="33.9" ry="27"/><ellipse style="fill:#ff91ab" cx="326.6" cy="221.5" rx="33.9" ry="27"/><path style="fill:#eda751" d="M303 469h-81a24 24 0 1 1 0-48h81a24 24 0 1 1 0 48zM127 380a24 24 0 0 1-16-36c11-19 38-33 66-33 27 1 50 15 63 40a24 24 0 1 1-42 22c-5-9-11-13-21-14-12 0-23 6-25 9-5 9-15 13-25 12zm25-12z"/><path style="fill:#dee2e5" d="M504 381H223V234c0-10 9-19 19-19h244c10 0 18 9 18 19v147z"/><path style="fill:#7694e4" d="M504 381H223v43h269c7 0 12-6 12-13v-30zM124 381h99v43h-99c-7 0-12-6-12-13v-17c0-7 5-13 12-13z"/><path style="opacity:.1;enable-background:new" d="M124 381h99v43h-99c-7 0-12-6-12-13v-17c0-7 5-13 12-13z"/><circle style="fill:#fff" cx="363.9" cy="298.1" r="29"/><path d="M139 234c-10 3-30 13-38 19a7 7 0 1 0 9 12c7-5 25-14 33-17a8 8 0 0 0-4-14zm175-39v-12a7 7 0 1 0-15 0v12a7 7 0 1 0 15 0zm-144 0v-12a7 7 0 1 0-15 0v12a7 7 0 1 0 15 0zm316 13h-70c-1-16-5-31-11-46 21-31 26-69 16-105-4-11-14-19-25-21-36-4-71 7-98 31a228 228 0 0 0-153 0c-27-24-62-35-98-31-11 2-21 10-25 21-10 36-5 74 16 105-7 17-11 36-11 55 0 37 14 67 44 90a7 7 0 0 0 10-1c3-4 2-8-1-11a95 95 0 0 1-38-78c0-82 80-148 180-148a213 213 0 0 1 117 36l10 7a148 148 0 0 1 41 53c6 13 10 28 11 43H249l10-8a8 8 0 0 0-11-10 18 18 0 0 1-27 0 8 8 0 0 0-11 10c5 6 12 10 20 11-8 4-14 13-14 23v80c-12-6-25-10-39-10-19 0-37 5-51 15l-17-7a7 7 0 1 0-6 14l9 4-8 11a31 31 0 0 0 0 30l2 15-2 8v17c0 4 1 8 3 11-8 4-13 2-17 0-9-5-11-14-16-32-5-21-11-49-41-65a22 22 0 0 0-30 8 22 22 0 0 0 8 31c12 6 15 15 20 36 4 20 10 45 35 60 11 6 21 9 32 9 14 0 27-5 40-14l7-5c21 17 48 27 77 27h160a31 31 0 0 0 28-46h82c11 0 20-9 20-20V234c0-14-12-26-26-26zM84 101c-16 13-29 29-38 45-16-28-15-55-12-73 16 4 35 11 54 26l-4 2zm16-12C79 72 56 63 38 59c2-4 6-7 11-8 29-3 58 5 80 22l-29 16zm243 0-29-16c22-17 51-25 80-22 5 1 9 4 11 8-18 4-41 13-62 30zm54 57a167 167 0 0 0-41-47c18-15 37-22 53-26 3 18 4 45-12 73zM117 348c10-17 35-29 59-29 15 0 29 5 40 14v40h-9l-2-3c-6-12-15-18-27-18-15-1-28 6-32 12a16 16 0 0 1-28 1 16 16 0 0 1-1-17zm72 25h-31v-1c2-1 10-6 19-5 5 0 9 2 12 6zm-59 70c-11 7-22 11-32 11-8 0-16-2-24-7-20-12-24-31-29-50-4-20-8-36-26-46a7 7 0 0 1-3-10 7 7 0 0 1 10-3c24 13 29 35 34 55 4 18 7 33 22 41 8 5 20 10 39-3h5l8 9-4 3zm-6-27c-3 0-5-2-5-5v-17l1-3 4-3h92v28h-92zm179 46h-81a107 107 0 0 1-76-31h166c5 3 7 8 7 14 0 9-7 17-16 17zm79 0h-52a31 31 0 0 0 1-31h60c5 3 8 8 8 14 0 9-8 17-17 17zm115-89h-20a7 7 0 1 0 0 15h20v23c0 3-2 5-5 5H231v-28h211a7 7 0 1 0 0-15H231V234c0-6 5-11 11-11h244c6 0 11 5 11 11v139zM136 208c-11-1-34 1-43 3a8 8 0 0 0 4 15c7-2 28-4 37-3a8 8 0 0 0 2-15z"/></svg>