<svg xmlns="http://www.w3.org/2000/svg" viewBox="0 0 512 512" style="enable-background:new 0 0 511.999 511.999" xml:space="preserve"><path style="fill:#dee2e5" d="M126 504c-6 1-13-3-14-10-4-18 1-36 13-49 12-14 32-20 54-18 31 4 37-12 44-40l3-11a13 13 0 0 1 25 8l-3 10c-4 14-8 29-18 41-12 15-31 21-55 18-13-2-25 2-32 9-6 7-8 16-6 27a13 13 0 0 1-11 15z"/><path style="fill:#7694e4" d="M126 504h1c7-1 12-8 10-15l-1-9c-8-1-18 0-25 2l1 12c1 7 8 11 14 10z"/><path style="fill:#dee2e5" d="M283 502a21 21 0 0 1-23-25c5-24-6-44-15-51a21 21 0 1 1 26-32c11 9 20 22 26 38 6 17 7 36 4 54-2 9-9 15-18 16z"/><path style="opacity:.1;enable-background:new" d="M283 502a21 21 0 0 1-23-25c5-24-6-44-15-51a21 21 0 1 1 26-32c11 9 20 22 26 38 6 17 7 36 4 54-2 9-9 15-18 16z"/><path style="fill:#dee2e5" d="M115 395a21 21 0 0 1-16-37c27-22 79-25 106-21a21 21 0 0 1-8 41c-21-4-58 1-72 12-3 3-7 4-10 5zM372 475a21 21 0 0 1-24-22c1-20-11-28-24-35a21 21 0 0 1 19-36h1c12 6 47 25 45 73 0 10-8 18-17 20z"/><path style="opacity:.1;enable-background:new" d="M372 475a21 21 0 0 1-24-22c1-20-11-28-24-35a21 21 0 0 1 19-36h1c12 6 47 25 45 73 0 10-8 18-17 20z"/><path style="fill:#dee2e5" d="M452 352h-9c-31-9-56-7-79 6a21 21 0 0 1-21-36c33-18 70-22 111-10a21 21 0 0 1-2 40z"/><path style="opacity:.2;enable-background:new" d="M230 435c10-12 14-27 18-41l3-10a13 13 0 0 0-25-8l-3 11c-5 21-10 34-24 39a109 109 0 0 0 23 17l8-8z"/><path style="opacity:.1;enable-background:new" d="m370 414 5-7a93 93 0 0 0-31-25h-1a21 21 0 0 0-19 36c9 5 17 10 21 18 9-6 17-14 25-22zM294 455l8-1c-1-8-2-15-5-22-6-16-15-29-26-38a21 21 0 1 0-26 32c6 5 13 15 16 29a119 119 0 0 0 33 0z"/><path style="opacity:.2;enable-background:new" d="M336 350c5 10 18 14 28 8 9-5 19-9 30-10a103 103 0 0 0-8-41c-15 3-29 8-43 15-9 6-13 19-7 28zM221 361c2-11-5-22-16-24-10-1-24-2-38-1a101 101 0 0 0 2 41c10-1 21 0 28 1 12 2 22-6 24-17z"/><ellipse transform="scale(-1) rotate(82 399 -320)" style="fill:#dee2e5" cx="279.8" cy="348.6" rx="88.2" ry="94.9"/><path style="opacity:.1;enable-background:new" d="M278 437c-47-22-42-82-38-108l-7-56a88 88 0 0 0-47 88c6 44 45 76 92 76z"/><path style="fill:#82c7e6" d="M478 143c13 97-79 163-202 180S47 300 34 203 97 30 234 11C371-7 465 46 478 143z"/><path style="fill:#7694e4" d="M277 326c-39 5-76 4-106-6l-4 18c-1 7 3 14 10 15 30 7 65 8 104 3s72-15 99-30c6-3 9-11 5-17l-8-17c-26 17-61 28-100 34z"/><path style="fill:#eda751" d="M202 205c16-18 25-46-6-81S124 85 95 93c-8 2-13 8-15 15-4 31 4 70 42 98 37 28 64 17 80-1z"/><path style="fill:#ff91ab" d="M80 113c-4 30 6 67 42 93 32 24 57 19 73 6-24-83-81-98-115-99z"/><path style="fill:#eda751" d="M317 189c-21-13-37-37-16-79s59-57 90-57c7 0 14 4 17 11 13 28 16 69-13 106-29 36-58 32-78 19z"/><path style="fill:#ff91ab" d="M410 68c11 28 12 66-15 102-25 31-50 33-70 24 1-86 52-115 85-126z"/><path style="fill:#ffdc9c" d="M423 199c9 73-58 115-146 127-89 12-165-11-175-84s54-142 143-154 168 38 178 111z"/><ellipse transform="scale(-1) rotate(82 268 -211)" style="fill:#ff91ab" cx="184.3" cy="234.1" rx="23.3" ry="29.2"/><ellipse transform="rotate(82 342 213)" style="fill:#ff91ab" cx="341.5" cy="212.9" rx="23.3" ry="29.2"/><circle style="fill:#bd4568" cx="292.6" cy="392.9" r="19.3"/><path style="fill:#7694e4" d="M267 414a7 7 0 0 1-3-14l50-27a8 8 0 0 1 7 13l-50 27-4 1z"/><circle style="fill:#82c7e6" cx="435.6" cy="404.6" r="15.2"/><circle style="fill:#7694e4" cx="58.6" cy="328.7" r="15.2"/><circle style="fill:#ff91ab" cx="87.1" cy="432.6" r="15.2"/><path style="opacity:.1;enable-background:new" d="M194 19C82 45 22 116 34 203c10 74 74 114 157 122a271 271 0 0 0 86 1C95 302 139 96 194 19z"/><path d="m348 215 2-1c7-1 25-3 31-2a7 7 0 1 0 2-15c-8-1-28 0-37 3a8 8 0 0 0 2 15zM81 329a23 23 0 1 0-45 0 23 23 0 0 0 45 0zm-22 7a8 8 0 1 1 0-15 8 8 0 0 1 0 15zm28 74a23 23 0 1 0 0 45 23 23 0 0 0 0-45zm0 30a8 8 0 1 1 0-15 8 8 0 0 1 0 15zm369-135c-24-7-46-9-67-6l-1-1c29-15 53-33 69-54 24-30 33-64 28-102-6-51-34-90-79-115C362 3 302-6 233 4c-68 9-124 33-160 68-37 36-53 81-46 132 5 37 23 68 54 91 21 15 49 27 81 33v1c-19 2-48 7-68 23a28 28 0 0 0 36 44c8-7 33-12 54-12 5 12 12 22 20 30-4 5-11 8-24 6-25-3-47 4-61 20a63 63 0 0 0-14 56 20 20 0 0 0 24 16c11-3 18-13 16-24-2-9-1-16 4-21s14-8 26-7c26 4 46-3 61-20l2-3 9 3c4 6 9 19 6 36a28 28 0 0 0 55 11c3-15 3-31-1-47 9-2 16-5 24-9 6 5 10 11 10 22a28 28 0 0 0 28 29h4c12-2 22-12 24-24a8 8 0 0 0-15-2 13 13 0 0 1-26-2c0-16-5-25-12-32 7-5 13-11 18-18 7 7 13 15 16 23a8 8 0 1 0 14-5c-4-12-12-22-21-31 5-10 9-21 10-33 18-6 37-6 60 1a28 28 0 0 0 35-19 28 28 0 0 0-20-35zm-323-16a7 7 0 1 0-11 11l2 2c-47-20-76-54-82-100s8-87 41-119c34-33 87-56 152-64 66-9 122-2 164 21 41 23 65 58 72 104 6 46-13 87-54 118 12-19 16-40 13-64-2-16-8-32-16-46 14-28 15-62 1-91-4-10-14-16-24-16-32 1-61 14-81 38a198 198 0 0 0-130 17c-26-17-57-22-87-15-11 3-18 11-20 22-5 32 4 64 25 88a121 121 0 0 0 3 73 8 8 0 0 0 14-6l-5-21a106 106 0 0 1 4-46 127 127 0 0 1 35-55l1-1a160 160 0 0 1 33-24 182 182 0 0 1 167-3l9 6a127 127 0 0 1 41 39c8 13 13 28 15 43 4 32-7 58-33 79a130 130 0 0 1-27 17c-21 10-48 18-79 22a263 263 0 0 1-84-1h-1a156 156 0 0 1-18-4c-16-6-30-14-40-24zM406 78c4 14 7 36-2 60-10-13-22-24-37-33l-2-1c13-14 28-22 41-26zm-55 18-24-9c23-23 52-27 64-27 3 0 6 2 9 4-15 6-33 16-49 32zM89 106c1-3 4-5 7-6 12-3 40-8 69 9l-21 15c-19-12-39-17-55-18zm44 29-2 2c-12 13-21 27-27 41a92 92 0 0 1-17-57c13 1 30 5 46 14zm-13 249a13 13 0 1 1-16-20c12-10 32-17 56-20 1 8 7 15 15 17h3v1l2 7c-22 0-48 5-60 15zm104 47c-10 12-27 17-48 15-16-2-29 2-38 11-8 9-11 21-8 34a5 5 0 0 1-11 2c-3-17 1-32 11-43 11-12 28-17 48-15 17 2 29-1 37-11l10 6-1 1zm69 53a13 13 0 0 1-25-5c3-14 1-26-3-35a108 108 0 0 0 28-1c3 14 3 28 0 41zm-2-55c-47 6-89-23-97-65a275 275 0 0 0 88 0c32-5 60-12 85-23 3 43-30 81-76 88zm86-109c-27 14-60 24-97 29-38 5-72 4-101-3-3 0-5-3-4-6v-2l2-7 13 1a331 331 0 0 0 184-28l4 7 1 1c1 3 0 6-2 8zm84 16a13 13 0 0 1-16 9c-23-7-44-8-63-2l-1-8v-1l3-1c7-4 11-12 10-19 18-2 37 0 58 5a13 13 0 0 1 9 17zm-25 46a23 23 0 1 0 0 45 23 23 0 0 0 0-45zm0 30a8 8 0 1 1 0-15 8 8 0 0 1 0 15zM184 230c0-4-3-7-7-7-10 0-29 4-37 7a7 7 0 0 0 6 14c6-3 23-6 31-6 4 0 7-4 7-8zm7-20a8 8 0 1 0 15-2l-2-10a8 8 0 0 0-15 2l2 10zm153 27c7 1 24 7 30 10a7 7 0 0 0 10-3c2-4 1-8-3-10-7-4-26-11-35-12a8 8 0 0 0-2 15zm-152 11c-1-4-6-5-9-4-9 4-25 15-31 21a7 7 0 1 0 10 10l26-17c4-2 6-6 4-10zm47-39a29 29 0 0 0 43-6 8 8 0 0 0-12-8 14 14 0 0 1-21 2 7 7 0 1 0-10 12zm75-16a8 8 0 1 0 15-2l-1-10a8 8 0 0 0-15 2l1 10z"/></svg>