<svg xmlns="http://www.w3.org/2000/svg" viewBox="0 0 512 512" style="enable-background:new 0 0 512.002 512.002" xml:space="preserve"><path style="fill:#bd4568" d="M173 282c-32 16-103 88-133 154-4 7-1 15 6 19 46 26 163 22 218 12 23-50 4-194 4-194l-95 9z"/><path style="fill:#eda751" d="m67 466-9-3c-7-6-8-15-2-21 27-33 50-39 71-44 16-4 29-8 44-22a15 15 0 0 1 21 21c-21 20-40 25-57 30-19 5-35 9-56 34-3 3-7 5-12 5z"/><path style="fill:#fcd79d" d="m65 432-9 10a15 15 0 1 0 23 19l8-9c-5-10-14-17-22-20z"/><path style="fill:#eda751" d="M150 504a24 24 0 0 1-11-45 151 151 0 0 0 57-54 24 24 0 0 1 38 30l-3 5c-14 18-33 42-70 61-3 2-7 3-11 3zM267 505a24 24 0 0 1-16-43c20-16 16-39 14-43a24 24 0 0 1 45-19c9 22 10 68-28 99-4 4-10 6-15 6zM333 362a24 24 0 0 1-3-48c17-2 69-30 99-53a24 24 0 0 1 29 37 358 358 0 0 1-125 64z"/><path style="opacity:.2;fill:#a35f00;enable-background:new" d="M378 347c0-16-3-33-10-48-16 8-30 14-38 15a24 24 0 0 0 6 48c11-2 26-7 42-15zM278 388c-12 5-18 19-13 31 2 4 6 27-14 43l-3 4h2c22 0 43-5 62-15 5-20 3-39-2-51-6-12-20-17-32-12zM230 401c-11-8-26-6-34 4l-4 6c-7 9-14 19-24 28 13 10 28 18 45 22l18-21 3-5c8-11 6-26-4-34zM171 376a81 81 0 0 1-40 21 125 125 0 0 0 19 26c13-5 27-11 42-26a15 15 0 0 0-21-21z"/><ellipse transform="rotate(-83 248 344)" style="fill:#fcd690" cx="247.6" cy="343.6" rx="102.9" ry="110.8"/><path style="fill:#ff91ab" d="M248 424h-3c-12-1-21-7-26-17a7 7 0 1 1 14-7c3 7 9 9 13 9 7 1 14-2 17-6a8 8 0 0 1 13 8c-6 8-17 13-28 13z"/><circle style="fill:#ff91ab" cx="283.6" cy="374.2" r="41.7"/><path style="opacity:.15;fill:#c17a00;enable-background:new" d="M219 443c-46-40-22-105-10-134l8-65c-41 10-74 43-79 86-7 51 29 99 81 113z"/><path style="fill:#bd4568" d="M148 271c-18 2-29 46 9 49 51 5 104 10 126 24 4 3 8 3 12 0 22-11 59-10 71-12 28-5 15-48-3-47s-215-14-215-14z"/><path style="fill:#eda751" d="M203 160c23-17 39-47 11-94S140 5 104 8c-9 0-16 6-19 14-13 34-12 82 25 122 38 40 71 33 93 16z"/><path style="fill:#ff91ab" d="M83 28c-10 33-8 78 27 116 33 35 62 34 84 22C184 66 122 36 83 28z"/><path style="fill:#eda751" d="M338 167c-21-19-34-50-1-94 34-44 80-52 115-46 9 1 16 8 18 16 9 35 3 82-38 118-42 36-74 26-94 6z"/><path style="fill:#ff91ab" d="M472 49c6 34-1 78-40 112-36 31-65 28-85 13 20-98 85-121 125-125z"/><path style="fill:#ffdc9c" d="M457 201c-4 86-91 119-195 114-104-6-186-48-181-134 4-86 92-152 196-146s185 80 180 166z"/><path style="opacity:.15;fill:#c17a00;enable-background:new" d="M176 54c-55 24-92 71-95 127-4 74 56 115 139 129-116-78-95-174-44-256z"/><ellipse transform="rotate(-87 204 180)" style="fill:#ff91ab" cx="203.6" cy="180.3" rx="27.2" ry="34.1"/><ellipse transform="rotate(93 388 190)" style="fill:#ff91ab" cx="388.4" cy="190.3" rx="27.2" ry="34.1"/><path style="fill:#eda751" d="M167 399c-20 0-39-9-48-26-6-9-8-20-6-32 1-10 6-21 14-32a24 24 0 1 1 39 27c-6 8-6 12-6 13 1 1 4 3 9 2a24 24 0 1 1 5 48h-7z"/><g style="opacity:.07"><path d="M310 342c-24 13-54 19-66 20a42 42 0 0 0-2 14c14 0 50-7 78-22l-10-12zM325 378a42 42 0 0 0-2-16c-27 17-67 25-79 25 1 5 4 9 7 14 18-2 49-9 74-23z"/></g><path d="M370 170c4 0 7-3 7-7l1-12a8 8 0 0 0-15-1l-1 12a7 7 0 0 0 8 8zm-173-3c-11-2-33-2-43 0a8 8 0 0 0 3 15c8-2 28-2 37 0a8 8 0 0 0 3-15zm184 41c-1 4 1 8 5 9 9 3 27 13 33 18a7 7 0 0 0 10-1c3-3 3-8-1-10-7-6-27-17-37-21-4-1-8 1-10 5zm71 41c8-14 12-30 13-47 1-20-2-38-9-56 23-30 31-68 22-104-3-12-12-21-24-23-36-6-72 3-100 26a230 230 0 0 0-154-9c-25-25-60-38-96-36-12 1-22 9-26 20-13 35-10 74 10 106-9 17-14 35-15 54-1 27 5 52 20 72a7 7 0 1 0 12-8 96 96 0 0 1-17-63c5-82 89-144 189-138 100 5 177 76 173 158a98 98 0 0 1-17 51c-9 14-22 25-39 34l-17 7c-30 12-70 17-114 14a265 265 0 0 1-124-33l-11-7a8 8 0 0 0-9 12l7 5c-2 5-2 11-2 16l-3 4-12 22c-33 35-61 73-76 107-5 10-1 22 9 28l8 4a23 23 0 0 0 23 8c13 3 28 6 46 7a31 31 0 0 0 31 32c5 0 10-2 15-4 15-8 28-17 38-27l32-2a31 31 0 0 0 50 27 8 8 0 0 0-8-12c-3 2-7 3-10 3a16 16 0 0 1-11-29c5-5 10-10 13-15 13-2 26-7 38-13-1 9-4 19-10 30a8 8 0 0 0 13 7c10-17 12-34 12-47 23-16 38-40 43-69 32-12 74-38 98-57a32 32 0 0 0-11-55zM137 67c-16 13-30 27-41 43-14-29-12-56-8-73 16 4 35 12 53 28l-4 2zm17-10c-20-20-43-29-61-35 2-4 7-6 12-7 29-2 57 8 79 27-11 4-21 9-30 15zm244 13c-9-7-18-13-28-18 23-16 52-23 81-18 5 1 9 4 11 9-18 3-42 10-64 27zm51 60a168 168 0 0 0-39-50c19-14 39-20 55-23 2 18 2 45-16 73zM120 342c2-9 6-19 13-29a16 16 0 0 1 23-4 16 16 0 0 1 4 23c-6 8-8 15-7 19l1 2c3 4 9 6 15 6a16 16 0 0 1 19 14 16 16 0 0 1-15 19h-6c-18 0-34-9-42-22-4-8-6-18-5-28zm-70 95-4 7v-5c13-27 34-57 59-86a56 56 0 0 0 19 38c-21 5-46 13-74 46zm23 19a7 7 0 0 1-6 3 7 7 0 0 1-6-4 7 7 0 0 1 1-9c25-30 46-36 67-41l12-3 9 3 6 7-23 7c-19 6-38 10-60 37zm49 10-33-5c17-19 31-23 48-27 9-2 20-5 31-10l2 2c-8 8-18 18-34 26-6 3-11 8-14 14zm36 29-8 2a16 16 0 0 1-7-32c18-9 31-21 39-30 10 6 21 11 32 14-14 16-30 32-56 46zm89-39-7 7-21 2 11-12a128 128 0 0 0 19 1l-2 2zm103-99c-6 52-58 88-114 81a104 104 0 0 1-62-29l-2-2 2-1a31 31 0 0 0 28-34 31 31 0 0 0-32-28l2-3 5-11a304 304 0 0 1 112 23c4 0 7 0 10-2 14-8 36-9 52-11l-1 17zm3-32c-18 1-44 3-61 13h-5c-22-13-65-19-110-24l-3-7a338 338 0 0 0 110 16c34 0 65-5 91-13l-2 9c-2 3-4 5-8 5l-12 1zm101-32c-22 16-59 39-88 52v-6h1c11-2 16-7 19-12 3-6 5-14 3-23l11-5c19-9 33-22 44-36a17 17 0 0 1 10 30zm-56-100a146 146 0 0 1 39 4 8 8 0 0 0 2-14c-9-3-32-6-43-5a7 7 0 1 0 2 15zm-198 0c-11 2-32 11-40 16a7 7 0 0 0 8 13c7-5 26-13 35-15a7 7 0 0 0-3-14zm25-31c4 0 7-3 7-7l1-12a7 7 0 1 0-15-1l-1 12a8 8 0 0 0 8 8zm72 13h1c9 0 18-4 24-10a8 8 0 0 0-11-10 18 18 0 0 1-27-2 8 8 0 0 0-12 9c6 8 15 12 25 13z"/></svg>