<svg width="173" height="173" fill="none" xmlns="http://www.w3.org/2000/svg"><g clip-path="url(#a)"><ellipse cx="87.5" cy="149" rx="80.5" ry="20" fill="#7694E4"/><path d="M134 52c0 33-47 88-47 88S39 88 39 55c0-11 6-31 14-39C62 8 73 4 85 4s27 4 35 12 14 25 14 36Z" fill="#FF91AB"/><path d="M86 70a19 19 0 1 0 0-38 19 19 0 0 0 0 38Z" fill="#FFDC9C"/><path d="M115 128a3 3 0 0 0-1 6c37 3 50 11 50 16 0 7-29 17-77 17-49 0-78-10-78-17 0-5 13-13 50-16a3 3 0 0 0-1-6c-13 1-55 6-55 22 0 15 42 23 84 23 41 0 83-8 83-23 0-16-42-21-55-22Z" fill="#000"/><path d="M122 14a50 50 0 0 0-79 11c-9 17-10 36-1 53 10 20 22 39 36 57l6 8a3 3 0 0 0 5 0l6-8c14-18 26-37 37-57 10-21 6-47-10-64Zm4 61c-10 20-21 39-35 57l-4 5-5-6c-14-17-25-36-35-56-8-15-7-32 1-47a45 45 0 0 1 70-10c14 16 18 38 8 57Z" fill="#000"/><path d="M108 43a3 3 0 0 0-5 2c1 3 2 7 1 11-2 6-7 11-13 13-6 1-13 0-17-5-4-4-6-11-5-17a18 18 0 0 1 24-12 3 3 0 1 0 3-5c-5-2-10-3-15-2-9 2-15 9-17 18-2 8 0 16 6 22a23 23 0 0 0 39-11c2-5 1-10-1-14Z" fill="#000"/></g><defs><clipPath id="a"><path fill="#fff" d="M0 0h173v173H0z"/></clipPath></defs></svg>